<svg width="125" height="41" viewBox="0 0 125 41" fill="none" xmlns="http://www.w3.org/2000/svg">
<path d="M33.4375 12.0781C33.4375 12.2969 33.4062 12.5156 33.3438 12.7344C33.2812 12.9375 33.25 13.1484 33.25 13.3672C33.25 13.5391 33.2734 13.7031 33.3203 13.8594C33.3672 14 33.3906 14.1562 33.3906 14.3281C33.3906 14.5 33.3672 14.6797 33.3203 14.8672C33.2734 15.0391 33.25 15.2109 33.25 15.3828C33.25 15.8203 33.2734 16.25 33.3203 16.6719C33.3672 17.0781 33.3906 17.4844 33.3906 17.8906C33.3906 18.1719 33.3672 18.4141 33.3203 18.6172C33.2891 18.8203 33.25 19.0078 33.2031 19.1797C33.1562 19.3516 33.1094 19.5156 33.0625 19.6719C33.0156 19.8281 32.9844 20 32.9688 20.1875C32.9062 20.7031 32.875 21.2578 32.875 21.8516C32.8906 22.4453 32.875 23.0391 32.8281 23.6328C32.7812 24.2109 32.6797 24.7734 32.5234 25.3203C32.3672 25.8516 32.0938 26.3203 31.7031 26.7266C31.7344 26.8516 31.75 26.9766 31.75 27.1016C31.75 27.2109 31.75 27.3359 31.75 27.4766C31.75 27.7422 31.7344 28.0078 31.7031 28.2734C31.6875 28.5391 31.6406 28.7891 31.5625 29.0234C31.5156 29.1641 31.4375 29.2969 31.3281 29.4219C31.2188 29.5312 31.1406 29.6562 31.0938 29.7969C30.9219 30.2344 30.8047 30.6797 30.7422 31.1328C30.6953 31.5703 30.6016 32 30.4609 32.4219C30.4141 32.5781 30.3438 32.7109 30.25 32.8203C30.1562 32.9297 30.0703 33.0547 29.9922 33.1953C29.9297 33.3516 29.8906 33.5078 29.875 33.6641C29.875 33.8047 29.8594 33.9531 29.8281 34.1094C29.8125 34.25 29.7734 34.3906 29.7109 34.5312C29.6641 34.6562 29.5625 34.7891 29.4062 34.9297C29.3281 35.0703 29.2969 35.2266 29.3125 35.3984C29.3281 35.5547 29.2969 35.7031 29.2188 35.8438C29.125 36.1094 29 36.3672 28.8438 36.6172C28.7031 36.8516 28.5703 37.1016 28.4453 37.3672C28.4141 37.4609 28.3672 37.5859 28.3047 37.7422C28.2578 37.8828 28.2031 38.0312 28.1406 38.1875C28.0938 38.3594 28.0391 38.5078 27.9766 38.6328C27.9297 38.7734 27.8828 38.8672 27.8359 38.9141C27.7422 39.0391 27.6562 39.125 27.5781 39.1719C27.5 39.2188 27.4219 39.2656 27.3438 39.3125C27.2812 39.3594 27.2109 39.4297 27.1328 39.5234C27.0703 39.6172 27 39.7812 26.9219 40.0156C26.8125 40.0938 26.6641 40.1406 26.4766 40.1562C26.2891 40.1719 26.1328 40.2188 26.0078 40.2969C25.9141 40.3594 25.8438 40.4219 25.7969 40.4844C25.75 40.5469 25.7031 40.6016 25.6562 40.6484C25.625 40.6953 25.5781 40.7266 25.5156 40.7422C25.4531 40.7734 25.3594 40.7891 25.2344 40.7891H25C24.6875 40.8047 24.3984 40.75 24.1328 40.625C23.8828 40.5 23.6328 40.3516 23.3828 40.1797C23.1484 40.0234 22.9062 39.8594 22.6562 39.6875C22.4062 39.5312 22.1328 39.4297 21.8359 39.3828C21.5234 38.8516 21.2734 38.3125 21.0859 37.7656C20.8984 37.2188 20.6797 36.6719 20.4297 36.125C20.3047 35.8906 20.1719 35.6719 20.0312 35.4688C19.8906 35.2656 19.7578 35.0625 19.6328 34.8594C19.5078 34.6562 19.3984 34.4453 19.3047 34.2266C19.2266 33.9922 19.1875 33.7266 19.1875 33.4297C19.1875 33.1484 19.2344 32.8672 19.3281 32.5859C19.2031 32.4453 19.0547 32.1641 18.8828 31.7422C18.7266 31.3203 18.5781 30.875 18.4375 30.4062C18.2969 29.9219 18.1797 29.4609 18.0859 29.0234C17.9922 28.5703 17.9453 28.25 17.9453 28.0625C17.9453 27.9844 17.9141 27.8984 17.8516 27.8047C17.7891 27.6953 17.7188 27.5781 17.6406 27.4531C17.5781 27.3281 17.5234 27.1953 17.4766 27.0547C17.4297 26.8984 17.4219 26.7266 17.4531 26.5391C17.2344 26.7266 17.0781 26.9375 16.9844 27.1719C16.9062 27.4062 16.8516 27.6562 16.8203 27.9219C16.8047 28.1875 16.7891 28.4609 16.7734 28.7422C16.7734 29.0078 16.7422 29.2656 16.6797 29.5156C16.6328 29.7031 16.5625 29.8828 16.4688 30.0547C16.3906 30.2266 16.3047 30.3984 16.2109 30.5703C16.0703 30.9453 15.9688 31.3359 15.9062 31.7422C15.8438 32.1328 15.75 32.5234 15.625 32.9141C15.5469 33.0547 15.4609 33.2031 15.3672 33.3594C15.2734 33.5 15.2031 33.6562 15.1562 33.8281C15.125 33.9531 15.1172 34.0625 15.1328 34.1562C15.1484 34.25 15.1562 34.3594 15.1562 34.4844C15.1562 34.5469 15.1406 34.6094 15.1094 34.6719C15.0781 34.7188 15.0469 34.7812 15.0156 34.8594C14.9844 34.9375 14.9531 35.0391 14.9219 35.1641C14.8906 35.2734 14.875 35.4219 14.875 35.6094C14.875 35.7344 14.8203 35.8984 14.7109 36.1016C14.6172 36.3047 14.5078 36.5312 14.3828 36.7812C14.2734 37.0156 14.1641 37.2656 14.0547 37.5312C13.9609 37.7969 13.9141 38.0625 13.9141 38.3281C13.6797 38.3906 13.4766 38.5 13.3047 38.6562C13.1484 38.8125 13.0078 38.9844 12.8828 39.1719C12.7734 39.3594 12.6641 39.5547 12.5547 39.7578C12.4609 39.9609 12.3516 40.1406 12.2266 40.2969C12.1797 40.2969 12.1406 40.2891 12.1094 40.2734C12.0938 40.2578 12.0703 40.25 12.0391 40.25C11.8672 40.25 11.7188 40.3125 11.5938 40.4375C11.4844 40.5781 11.3281 40.6484 11.125 40.6484C10.9062 40.6484 10.6953 40.6172 10.4922 40.5547C10.3047 40.5078 10.1016 40.4844 9.88281 40.4844C9.67969 40.4844 9.47656 40.5078 9.27344 40.5547C9.08594 40.6172 8.88281 40.6484 8.66406 40.6484C8.41406 40.6484 8.19531 40.5703 8.00781 40.4141C7.83594 40.2578 7.66406 40.0859 7.49219 39.8984C7.32031 39.7109 7.14062 39.5312 6.95312 39.3594C6.78125 39.2031 6.57031 39.1172 6.32031 39.1016V38.9609C6.32031 38.7734 6.24219 38.6328 6.08594 38.5391C5.92969 38.4453 5.79688 38.3125 5.6875 38.1406C5.5625 37.9531 5.48438 37.7344 5.45312 37.4844C5.42188 37.2188 5.35938 36.9766 5.26562 36.7578C5.14062 36.5547 4.99219 36.375 4.82031 36.2188C4.64844 36.0625 4.52344 35.8906 4.44531 35.7031C4.41406 35.5781 4.41406 35.4609 4.44531 35.3516C4.47656 35.2266 4.49219 35.1172 4.49219 35.0234L4.44531 34.9297L4.16406 34.7422C4.07031 34.5234 4.01562 34.2891 4 34.0391C3.98438 33.7734 3.875 33.5391 3.67188 33.3359C3.70312 33.2578 3.72656 33.1797 3.74219 33.1016C3.77344 33.0234 3.78906 32.9453 3.78906 32.8672C3.78906 32.4141 3.6875 31.9766 3.48438 31.5547C3.29688 31.1328 3.15625 30.7031 3.0625 30.2656C3 29.9375 2.96094 29.6172 2.94531 29.3047C2.94531 28.9766 2.94531 28.6562 2.94531 28.3438C2.94531 28.0156 2.92969 27.6875 2.89844 27.3594C2.88281 27.0312 2.84375 26.7031 2.78125 26.375C2.71875 26.1875 2.64062 26.0078 2.54688 25.8359C2.45312 25.6641 2.36719 25.4922 2.28906 25.3203C2.21094 25.1016 2.16406 24.8906 2.14844 24.6875C2.13281 24.4688 2.08594 24.2656 2.00781 24.0781C1.92969 23.9062 1.82031 23.7578 1.67969 23.6328C1.55469 23.4922 1.45312 23.3203 1.375 23.1172C1.40625 22.9297 1.42188 22.7344 1.42188 22.5312C1.42188 22.3281 1.42969 22.125 1.44531 21.9219C1.46094 21.7188 1.5 21.5312 1.5625 21.3594C1.625 21.1719 1.72656 20.9922 1.86719 20.8203C1.72656 20.7109 1.625 20.5625 1.5625 20.375C1.5 20.1719 1.46094 19.9609 1.44531 19.7422C1.42969 19.5078 1.42188 19.2891 1.42188 19.0859C1.42188 18.8672 1.40625 18.6797 1.375 18.5234C1.28125 18.1328 1.14844 17.7734 0.976562 17.4453C0.820312 17.1172 0.742188 16.75 0.742188 16.3438C0.742188 16.2656 0.78125 16.1797 0.859375 16.0859C0.9375 15.9922 1 15.9219 1.04688 15.875C1.07812 15.7812 1.08594 15.6953 1.07031 15.6172C1.05469 15.5391 1.04688 15.4453 1.04688 15.3359V15.2422C1.0625 15.1328 1.10938 14.9141 1.1875 14.5859C1.28125 14.2578 1.38281 13.9141 1.49219 13.5547C1.60156 13.1797 1.70312 12.8438 1.79688 12.5469C1.89062 12.25 1.96094 12.0625 2.00781 11.9844C2.22656 11.6875 2.49219 11.4922 2.80469 11.3984C3.11719 11.3047 3.44531 11.2578 3.78906 11.2578C4.07031 11.2578 4.34375 11.2656 4.60938 11.2812C4.875 11.2969 5.14062 11.3203 5.40625 11.3516C5.73438 11.7578 5.96094 12.0469 6.08594 12.2188C6.21094 12.3906 6.29688 12.5469 6.34375 12.6875C6.39062 12.8281 6.42188 13 6.4375 13.2031C6.46875 13.3906 6.53906 13.7031 6.64844 14.1406C6.69531 14.3906 6.75781 14.5859 6.83594 14.7266C6.91406 14.8672 6.95312 15.0547 6.95312 15.2891C6.95312 15.5547 6.92969 15.8125 6.88281 16.0625C6.83594 16.3125 6.8125 16.5703 6.8125 16.8359C6.8125 17.9141 6.89062 18.9766 7.04688 20.0234C7.20312 21.0703 7.28125 22.1328 7.28125 23.2109C7.28125 23.4609 7.28906 23.6641 7.30469 23.8203C7.33594 23.9766 7.36719 24.1172 7.39844 24.2422C7.44531 24.3672 7.49219 24.5 7.53906 24.6406C7.58594 24.7656 7.64062 24.9297 7.70312 25.1328C7.78125 25.3984 7.8125 25.6641 7.79688 25.9297C7.78125 26.1953 7.80469 26.4609 7.86719 26.7266C7.91406 26.9453 7.99219 27.1484 8.10156 27.3359C8.21094 27.5078 8.28906 27.7031 8.33594 27.9219C8.39844 28.2031 8.4375 28.4844 8.45312 28.7656C8.48438 29.0469 8.52344 29.3203 8.57031 29.5859C8.61719 29.8516 8.6875 30.1094 8.78125 30.3594C8.89062 30.6094 9.04688 30.8359 9.25 31.0391C9.1875 31.1641 9.15625 31.2578 9.15625 31.3203C9.15625 31.5391 9.22656 31.7344 9.36719 31.9062C9.50781 32.0781 9.625 32.25 9.71875 32.4219C9.75 32.4219 9.76562 32.4297 9.76562 32.4453C9.78125 32.4609 9.80469 32.4688 9.83594 32.4688C9.96094 32.4688 10.0391 32.4062 10.0703 32.2812C10.1172 32.1406 10.1641 32.0312 10.2109 31.9531C10.4766 31.5625 10.7031 31.0625 10.8906 30.4531C11.0781 29.8281 11.2578 29.2109 11.4297 28.6016C11.6016 27.9922 11.7656 27.4375 11.9219 26.9375C12.0938 26.4375 12.2891 26.1094 12.5078 25.9531C12.5547 25.625 12.5781 25.2734 12.5781 24.8984C12.5781 24.5078 12.5859 24.125 12.6016 23.75C12.6328 23.3594 12.6953 22.9922 12.7891 22.6484C12.8828 22.3047 13.0469 22 13.2812 21.7344C13.3281 20.7812 13.4688 19.9922 13.7031 19.3672C13.9375 18.7266 14.1719 18.1406 14.4062 17.6094C14.6562 17.0625 14.8594 16.5 15.0156 15.9219C15.1875 15.3281 15.2344 14.5938 15.1562 13.7188C15.3125 13.5312 15.4688 13.3359 15.625 13.1328C15.7812 12.9141 15.9453 12.7266 16.1172 12.5703C16.3047 12.3984 16.5078 12.2578 16.7266 12.1484C16.9609 12.0391 17.2188 11.9844 17.5 11.9844C17.9062 11.9844 18.25 12.0547 18.5312 12.1953C18.8125 12.3359 19.0469 12.5234 19.2344 12.7578C19.4375 12.9922 19.6172 13.2578 19.7734 13.5547C19.9297 13.8516 20.0859 14.1562 20.2422 14.4688C20.4297 14.8594 20.5234 15.3203 20.5234 15.8516C20.5234 16.3828 20.5234 16.8672 20.5234 17.3047C20.5234 17.6484 20.5469 17.9531 20.5938 18.2188C20.6406 18.4688 20.6953 18.7188 20.7578 18.9688C20.8359 19.2031 20.9141 19.4453 20.9922 19.6953C21.0703 19.9453 21.1406 20.2266 21.2031 20.5391C21.25 20.8672 21.2656 21.2031 21.25 21.5469C21.2344 21.875 21.2656 22.2109 21.3438 22.5547C21.4375 22.9766 21.5781 23.3906 21.7656 23.7969C21.9531 24.1875 22.1172 24.5859 22.2578 24.9922C22.4766 25.6016 22.6719 26.2422 22.8438 26.9141C23.0156 27.5859 23.1875 28.2578 23.3594 28.9297C23.5312 29.6016 23.7109 30.2656 23.8984 30.9219C24.1016 31.5625 24.3359 32.1641 24.6016 32.7266C24.7891 32.6797 24.9688 32.4766 25.1406 32.1172C25.3281 31.7422 25.4844 31.3203 25.6094 30.8516C25.7344 30.3828 25.8359 29.9297 25.9141 29.4922C25.9922 29.0547 26.0234 28.7422 26.0078 28.5547C26.2891 28.3047 26.4688 28 26.5469 27.6406C26.625 27.2812 26.6484 26.9141 26.6172 26.5391C26.8203 26.3203 27 26.0703 27.1562 25.7891C27.3125 25.5078 27.3906 25.1953 27.3906 24.8516C27.3906 24.6016 27.3594 24.3594 27.2969 24.125C27.2344 23.8906 27.2031 23.6484 27.2031 23.3984C27.2031 23.0703 27.25 22.7578 27.3438 22.4609C27.4531 22.1484 27.5625 21.8516 27.6719 21.5703C27.7969 21.2891 27.9062 21.0156 28 20.75C28.1094 20.4844 28.1641 20.2344 28.1641 20C28.1641 19.7812 28.1406 19.5625 28.0938 19.3438C28.0469 19.1094 28.0234 18.8828 28.0234 18.6641C28.1172 18.5703 28.1641 18.4688 28.1641 18.3594C28.1641 18.2344 28.1328 18.1094 28.0703 17.9844C28.0078 17.8438 27.9766 17.7031 27.9766 17.5625C27.9766 17.2656 28.0312 16.9844 28.1406 16.7188C28.25 16.4375 28.3047 16.1562 28.3047 15.875C28.3047 15.6562 28.2578 15.4609 28.1641 15.2891C28.0703 15.1016 28.0234 14.8984 28.0234 14.6797C28.0234 14.5078 28.0469 14.3516 28.0938 14.2109C28.1406 14.0547 28.1641 13.8906 28.1641 13.7188C28.1641 13.5156 28.1406 13.3281 28.0938 13.1562C28.0469 12.9844 28.0234 12.8047 28.0234 12.6172C28.0234 12.3672 28.0469 12.1172 28.0938 11.8672C28.1562 11.6016 28.2188 11.3438 28.2812 11.0938C28.3594 10.8281 28.4219 10.5703 28.4688 10.3203C28.5312 10.0547 28.5703 9.79688 28.5859 9.54688C28.8203 9.4375 29.0391 9.3125 29.2422 9.17188C29.4453 9.01562 29.6484 8.86719 29.8516 8.72656C30.0703 8.58594 30.2891 8.46875 30.5078 8.375C30.7266 8.28125 30.9688 8.23438 31.2344 8.23438C31.3281 8.23438 31.4062 8.23438 31.4688 8.23438C31.5469 8.23438 31.625 8.25 31.7031 8.28125C31.875 8.48438 32.0703 8.63281 32.2891 8.72656C32.5234 8.82031 32.7031 8.92969 32.8281 9.05469C32.8281 9.32031 32.8594 9.57812 32.9219 9.82812C32.9844 10.0781 33.0547 10.3281 33.1328 10.5781C33.2109 10.8281 33.2812 11.0781 33.3438 11.3281C33.4062 11.5781 33.4375 11.8281 33.4375 12.0781ZM62.1953 13.4141C62.1953 13.6484 62.1719 13.9844 62.125 14.4219C62.0781 14.8438 62.0078 15.2812 61.9141 15.7344C61.8203 16.1719 61.7031 16.5859 61.5625 16.9766C61.4375 17.3672 61.2969 17.6562 61.1406 17.8438C61.0938 17.9062 61.0547 18.0078 61.0234 18.1484C61.0078 18.2734 60.9922 18.4141 60.9766 18.5703C60.9609 18.7109 60.9453 18.8594 60.9297 19.0156C60.9141 19.1562 60.8906 19.2734 60.8594 19.3672C60.8125 19.5078 60.7266 19.6641 60.6016 19.8359C60.4766 19.9922 60.3438 20.1562 60.2031 20.3281C60.0625 20.4844 59.9219 20.6484 59.7812 20.8203C59.6562 20.9766 59.5469 21.1172 59.4531 21.2422C59.1875 21.6328 58.9219 22.0391 58.6562 22.4609C58.4062 22.8828 58.1641 23.2969 57.9297 23.7031C57.8984 23.75 57.8359 23.8672 57.7422 24.0547C57.6641 24.2266 57.6094 24.3125 57.5781 24.3125C57.5312 24.3906 57.4688 24.4297 57.3906 24.4297C57.3125 24.4297 57.2344 24.4609 57.1562 24.5234C56.9844 24.6328 56.8359 24.7734 56.7109 24.9453C56.5859 25.1016 56.4531 25.2578 56.3125 25.4141C56.1875 25.5703 56.0391 25.7109 55.8672 25.8359C55.7109 25.9609 55.5156 26.0312 55.2812 26.0469C55.0781 26.4688 54.8203 26.8438 54.5078 27.1719C54.1953 27.5 53.8672 27.8203 53.5234 28.1328C53.1797 28.4453 52.8438 28.7656 52.5156 29.0938C52.2031 29.4219 51.9453 29.7969 51.7422 30.2188C51.5391 30.3125 51.3125 30.3828 51.0625 30.4297C50.8281 30.4609 50.6328 30.5547 50.4766 30.7109C50.2891 30.8828 50.0781 31.0547 49.8438 31.2266C49.6094 31.3828 49.3828 31.5547 49.1641 31.7422C48.9609 31.9297 48.7656 32.1328 48.5781 32.3516C48.4062 32.5547 48.2734 32.7734 48.1797 33.0078C48.5391 33.1484 48.9062 33.2422 49.2812 33.2891C49.6719 33.3359 50.0547 33.3594 50.4297 33.3594C50.8203 33.3594 51.2109 33.3516 51.6016 33.3359C51.9922 33.3047 52.375 33.2891 52.75 33.2891C53.1719 33.2891 53.5703 33.3359 53.9453 33.4297C54.3359 33.5234 54.7344 33.5938 55.1406 33.6406C55.375 33.6719 55.6172 33.6797 55.8672 33.6641C56.1328 33.6484 56.3984 33.6406 56.6641 33.6406C57.0547 33.6406 57.4375 33.6719 57.8125 33.7344C58.2031 33.7969 58.5938 33.8125 58.9844 33.7812C59.1094 33.9531 59.2656 34.125 59.4531 34.2969C59.6562 34.4688 59.8438 34.6484 60.0156 34.8359C60.2031 35.0234 60.3594 35.2188 60.4844 35.4219C60.625 35.625 60.6953 35.8438 60.6953 36.0781C60.6953 36.2656 60.6328 36.4922 60.5078 36.7578C60.3984 37.0078 60.2578 37.2578 60.0859 37.5078C59.9141 37.7578 59.7266 37.9766 59.5234 38.1641C59.3203 38.3672 59.1406 38.5078 58.9844 38.5859C58.7969 38.6641 58.5234 38.7266 58.1641 38.7734C57.8047 38.8359 57.4297 38.8828 57.0391 38.9141C56.6484 38.9453 56.2656 38.9688 55.8906 38.9844C55.5312 39 55.2344 39.0078 55 39.0078C53.9219 39.0078 52.8281 38.9609 51.7188 38.8672C50.625 38.7734 49.5391 38.7266 48.4609 38.7266C48.1016 38.7266 47.7422 38.7344 47.3828 38.75C47.0234 38.7656 46.6641 38.7734 46.3047 38.7734C45.9297 38.7734 45.4531 38.7812 44.875 38.7969C44.2969 38.8125 43.7109 38.8125 43.1172 38.7969C42.5234 38.7812 41.9531 38.75 41.4062 38.7031C40.875 38.6562 40.4453 38.5625 40.1172 38.4219L39.9766 38.0938H39.625C39.4062 37.9688 39.2188 37.8047 39.0625 37.6016C38.9062 37.3984 38.7422 37.2109 38.5703 37.0391H38.2422V36.7109C38.0703 36.5078 37.9297 36.3047 37.8203 36.1016C37.7109 35.8984 37.6562 35.6641 37.6562 35.3984C37.6562 35.0859 37.6953 34.8281 37.7734 34.625C37.8672 34.4219 37.9766 34.1875 38.1016 33.9219C38.1953 33.6719 38.2734 33.4375 38.3359 33.2188C38.3984 32.9844 38.5312 32.7578 38.7344 32.5391C38.8281 32.4141 38.9062 32.3125 38.9688 32.2344C39.0312 32.1562 39.1094 32.0469 39.2031 31.9062C39.2969 31.7188 39.4531 31.5625 39.6719 31.4375C39.8906 31.3125 40.0391 31.1172 40.1172 30.8516C40.8203 30.7109 41.4844 30.4688 42.1094 30.125C42.7344 29.7656 43.25 29.2891 43.6562 28.6953C43.9375 28.6797 44.1641 28.6094 44.3359 28.4844C44.5234 28.3594 44.6875 28.2188 44.8281 28.0625C44.9844 27.8906 45.1328 27.7188 45.2734 27.5469C45.4297 27.3594 45.6172 27.2109 45.8359 27.1016C46.0547 27.0078 46.2812 26.9609 46.5156 26.9609C46.7656 26.9609 47 26.9141 47.2188 26.8203C47.4219 26.6172 47.6328 26.4219 47.8516 26.2344C48.0859 26.0469 48.3047 25.8594 48.5078 25.6719C48.7266 25.4844 48.9219 25.2812 49.0938 25.0625C49.2812 24.8438 49.4375 24.5938 49.5625 24.3125L49.6562 24.3594C49.7969 24.3594 49.9141 24.3281 50.0078 24.2656C50.1172 24.2031 50.2109 24.1328 50.2891 24.0547C50.3672 23.9609 50.4453 23.875 50.5234 23.7969C50.6016 23.7031 50.6875 23.625 50.7812 23.5625C50.8594 23.5 50.9375 23.4766 51.0156 23.4922C51.0938 23.4922 51.1719 23.4609 51.25 23.3984L51.3906 23.1172C51.5781 22.9922 51.8047 22.7812 52.0703 22.4844C52.3516 22.1719 52.6172 21.8359 52.8672 21.4766C53.1172 21.1016 53.3281 20.7422 53.5 20.3984C53.6875 20.0391 53.7734 19.75 53.7578 19.5312C54.0859 19.2656 54.4297 18.9219 54.7891 18.5C55.1641 18.0781 55.5 17.625 55.7969 17.1406C56.1094 16.6406 56.3594 16.1406 56.5469 15.6406C56.75 15.125 56.8438 14.6406 56.8281 14.1875V13.9531C56.7031 13.8594 56.6562 13.6797 56.6875 13.4141C56.7188 13.1484 56.7344 12.9297 56.7344 12.7578C56.7344 12.1953 56.6641 11.75 56.5234 11.4219C56.3984 11.0781 56.2422 10.7812 56.0547 10.5312C55.8828 10.2812 55.7031 10.0391 55.5156 9.80469C55.3438 9.55469 55.2188 9.24219 55.1406 8.86719C54.9531 8.64844 54.75 8.45312 54.5312 8.28125C54.3281 8.10938 54.1094 7.94531 53.875 7.78906C53.6562 7.63281 53.4375 7.46875 53.2188 7.29688C53.0156 7.125 52.8203 6.92969 52.6328 6.71094C52.5078 6.66406 52.3125 6.59375 52.0469 6.5C51.7969 6.39062 51.5391 6.28906 51.2734 6.19531C51.0078 6.08594 50.7578 5.99219 50.5234 5.91406C50.2891 5.83594 50.1328 5.79688 50.0547 5.79688C49.5703 5.79688 49.0859 5.91406 48.6016 6.14844C48.1172 6.36719 47.7031 6.64844 47.3594 6.99219C47.1094 7.02344 46.8828 7.07812 46.6797 7.15625C46.4766 7.21875 46.2812 7.30469 46.0938 7.41406C45.9219 7.50781 45.7422 7.60938 45.5547 7.71875C45.3672 7.8125 45.1562 7.89062 44.9219 7.95312C44.6875 8.1875 44.4844 8.44531 44.3125 8.72656C44.1562 9.00781 44 9.29688 43.8438 9.59375C43.7031 9.89062 43.5547 10.1875 43.3984 10.4844C43.2578 10.7656 43.0938 11.0391 42.9062 11.3047V11.5156C42.9062 11.7969 42.8594 12.0859 42.7656 12.3828C42.6875 12.6641 42.6484 12.9609 42.6484 13.2734C42.6484 13.4297 42.6719 13.5781 42.7188 13.7188C42.7656 13.8594 42.8281 14 42.9062 14.1406C42.6875 14.4688 42.5156 14.875 42.3906 15.3594C42.2812 15.8438 42.1953 16.3516 42.1328 16.8828C42.0859 17.4141 42.0625 17.9453 42.0625 18.4766C42.0781 18.9922 42.1016 19.4531 42.1328 19.8594C41.9453 19.9844 41.7656 20.125 41.5938 20.2812C41.4375 20.4219 41.2656 20.5547 41.0781 20.6797C40.9062 20.8047 40.7188 20.9062 40.5156 20.9844C40.3125 21.0625 40.0859 21.1016 39.8359 21.1016C39.7422 21.1016 39.6172 21.0938 39.4609 21.0781C39.3203 21.0469 39.1641 21.0078 38.9922 20.9609C38.8359 20.9141 38.6875 20.8672 38.5469 20.8203C38.4062 20.7578 38.3047 20.6953 38.2422 20.6328C38.1641 20.5547 38.1328 20.4766 38.1484 20.3984C38.1641 20.3203 38.1484 20.2344 38.1016 20.1406L37.8203 20C37.7266 19.8594 37.6172 19.6875 37.4922 19.4844C37.3828 19.2656 37.2812 19.0391 37.1875 18.8047C37.0938 18.5703 37.0156 18.3438 36.9531 18.125C36.8906 17.9062 36.8594 17.7188 36.8594 17.5625C36.8594 17.3594 36.8828 17.1719 36.9297 17C36.9766 16.8281 37 16.6406 37 16.4375C37 16.125 36.9844 15.8203 36.9531 15.5234C36.9219 15.2109 36.8906 14.8984 36.8594 14.5859C37 14.4609 37.1016 14.3125 37.1641 14.1406C37.2422 13.9688 37.3438 13.8125 37.4688 13.6719C37.4688 13.5625 37.4609 13.4766 37.4453 13.4141C37.4297 13.3359 37.4219 13.2578 37.4219 13.1797C37.4219 13.0234 37.4375 12.8203 37.4688 12.5703C37.5 12.3047 37.5391 12.0391 37.5859 11.7734C37.6484 11.5078 37.7109 11.25 37.7734 11C37.8359 10.75 37.8984 10.5469 37.9609 10.3906C37.9766 10.3438 38.0391 10.1953 38.1484 9.94531C38.2734 9.69531 38.4062 9.42969 38.5469 9.14844C38.6875 8.85156 38.8203 8.58594 38.9453 8.35156C39.0859 8.11719 39.1719 7.98438 39.2031 7.95312C39.2969 7.82812 39.3984 7.72656 39.5078 7.64844C39.6172 7.55469 39.7109 7.44531 39.7891 7.32031C39.8672 7.17969 39.9219 7.03125 39.9531 6.875C40 6.70312 40.0391 6.53906 40.0703 6.38281C40.1016 6.21094 40.1406 6.04688 40.1875 5.89062C40.2344 5.73438 40.3047 5.58594 40.3984 5.44531V5.30469C40.3984 5.21094 40.4297 5.14844 40.4922 5.11719C40.5547 5.07031 40.625 5.03125 40.7031 5C40.7969 4.96875 40.875 4.9375 40.9375 4.90625C41 4.85938 41.0312 4.78906 41.0312 4.69531C41.4844 4.24219 41.9297 3.8125 42.3672 3.40625C42.8047 3 43.3516 2.71094 44.0078 2.53906C44.1484 2.47656 44.2969 2.4375 44.4531 2.42188C44.6094 2.40625 44.7656 2.375 44.9219 2.32812C45.1406 2.25 45.3359 2.15625 45.5078 2.04688C45.6953 1.9375 45.9141 1.84375 46.1641 1.76562C46.3828 1.67188 46.6094 1.64063 46.8438 1.67188C47.0781 1.6875 47.3125 1.65625 47.5469 1.57812C47.75 1.51562 47.9297 1.42187 48.0859 1.29688C48.2422 1.15625 48.4141 1.08594 48.6016 1.08594C48.7109 1.08594 48.7969 1.11719 48.8594 1.17969C48.9219 1.24219 49 1.27344 49.0938 1.27344C49.1719 1.27344 49.2422 1.21875 49.3047 1.10938C49.3828 1 49.4688 0.945312 49.5625 0.945312C49.7188 0.945312 49.8672 0.976562 50.0078 1.03906C50.1484 1.10156 50.3047 1.13281 50.4766 1.13281C50.7422 1.13281 51.0078 1.11719 51.2734 1.08594C51.5391 1.05469 51.8047 1.03906 52.0703 1.03906C52.5547 1.03906 52.9922 1.10156 53.3828 1.22656C53.7734 1.33594 54.1484 1.46875 54.5078 1.625C54.8828 1.78125 55.25 1.94531 55.6094 2.11719C55.9844 2.28906 56.3906 2.42969 56.8281 2.53906C56.9531 2.75781 57.1562 3.01562 57.4375 3.3125C57.7344 3.60938 58.0312 3.89844 58.3281 4.17969C58.6406 4.46094 58.9141 4.71875 59.1484 4.95312C59.3984 5.17188 59.5469 5.33594 59.5938 5.44531C59.625 5.50781 59.6328 5.57031 59.6172 5.63281C59.6016 5.69531 59.5938 5.75 59.5938 5.79688V5.9375L59.9453 6.07812C60.0391 6.25 60.0938 6.41406 60.1094 6.57031C60.1406 6.71094 60.2266 6.85156 60.3672 6.99219C60.4922 7.11719 60.6016 7.25 60.6953 7.39062C60.8047 7.51562 60.9062 7.64062 61 7.76562C61.0156 8.28125 61.0859 8.8125 61.2109 9.35938C61.3516 9.89062 61.4922 10.4062 61.6328 10.9062C61.7734 11.4062 61.8984 11.875 62.0078 12.3125C62.1328 12.7344 62.1953 13.1016 62.1953 13.4141ZM97.75 12.0781C97.75 12.2969 97.7188 12.5156 97.6562 12.7344C97.5938 12.9375 97.5625 13.1484 97.5625 13.3672C97.5625 13.5391 97.5859 13.7031 97.6328 13.8594C97.6797 14 97.7031 14.1562 97.7031 14.3281C97.7031 14.5 97.6797 14.6797 97.6328 14.8672C97.5859 15.0391 97.5625 15.2109 97.5625 15.3828C97.5625 15.8203 97.5859 16.25 97.6328 16.6719C97.6797 17.0781 97.7031 17.4844 97.7031 17.8906C97.7031 18.1719 97.6797 18.4141 97.6328 18.6172C97.6016 18.8203 97.5625 19.0078 97.5156 19.1797C97.4688 19.3516 97.4219 19.5156 97.375 19.6719C97.3281 19.8281 97.2969 20 97.2812 20.1875C97.2188 20.7031 97.1875 21.2578 97.1875 21.8516C97.2031 22.4453 97.1875 23.0391 97.1406 23.6328C97.0938 24.2109 96.9922 24.7734 96.8359 25.3203C96.6797 25.8516 96.4062 26.3203 96.0156 26.7266C96.0469 26.8516 96.0625 26.9766 96.0625 27.1016C96.0625 27.2109 96.0625 27.3359 96.0625 27.4766C96.0625 27.7422 96.0469 28.0078 96.0156 28.2734C96 28.5391 95.9531 28.7891 95.875 29.0234C95.8281 29.1641 95.75 29.2969 95.6406 29.4219C95.5312 29.5312 95.4531 29.6562 95.4062 29.7969C95.2344 30.2344 95.1172 30.6797 95.0547 31.1328C95.0078 31.5703 94.9141 32 94.7734 32.4219C94.7266 32.5781 94.6562 32.7109 94.5625 32.8203C94.4688 32.9297 94.3828 33.0547 94.3047 33.1953C94.2422 33.3516 94.2031 33.5078 94.1875 33.6641C94.1875 33.8047 94.1719 33.9531 94.1406 34.1094C94.125 34.25 94.0859 34.3906 94.0234 34.5312C93.9766 34.6562 93.875 34.7891 93.7188 34.9297C93.6406 35.0703 93.6094 35.2266 93.625 35.3984C93.6406 35.5547 93.6094 35.7031 93.5312 35.8438C93.4375 36.1094 93.3125 36.3672 93.1562 36.6172C93.0156 36.8516 92.8828 37.1016 92.7578 37.3672C92.7266 37.4609 92.6797 37.5859 92.6172 37.7422C92.5703 37.8828 92.5156 38.0312 92.4531 38.1875C92.4062 38.3594 92.3516 38.5078 92.2891 38.6328C92.2422 38.7734 92.1953 38.8672 92.1484 38.9141C92.0547 39.0391 91.9688 39.125 91.8906 39.1719C91.8125 39.2188 91.7344 39.2656 91.6562 39.3125C91.5938 39.3594 91.5234 39.4297 91.4453 39.5234C91.3828 39.6172 91.3125 39.7812 91.2344 40.0156C91.125 40.0938 90.9766 40.1406 90.7891 40.1562C90.6016 40.1719 90.4453 40.2188 90.3203 40.2969C90.2266 40.3594 90.1562 40.4219 90.1094 40.4844C90.0625 40.5469 90.0156 40.6016 89.9688 40.6484C89.9375 40.6953 89.8906 40.7266 89.8281 40.7422C89.7656 40.7734 89.6719 40.7891 89.5469 40.7891H89.3125C89 40.8047 88.7109 40.75 88.4453 40.625C88.1953 40.5 87.9453 40.3516 87.6953 40.1797C87.4609 40.0234 87.2188 39.8594 86.9688 39.6875C86.7188 39.5312 86.4453 39.4297 86.1484 39.3828C85.8359 38.8516 85.5859 38.3125 85.3984 37.7656C85.2109 37.2188 84.9922 36.6719 84.7422 36.125C84.6172 35.8906 84.4844 35.6719 84.3438 35.4688C84.2031 35.2656 84.0703 35.0625 83.9453 34.8594C83.8203 34.6562 83.7109 34.4453 83.6172 34.2266C83.5391 33.9922 83.5 33.7266 83.5 33.4297C83.5 33.1484 83.5469 32.8672 83.6406 32.5859C83.5156 32.4453 83.3672 32.1641 83.1953 31.7422C83.0391 31.3203 82.8906 30.875 82.75 30.4062C82.6094 29.9219 82.4922 29.4609 82.3984 29.0234C82.3047 28.5703 82.2578 28.25 82.2578 28.0625C82.2578 27.9844 82.2266 27.8984 82.1641 27.8047C82.1016 27.6953 82.0312 27.5781 81.9531 27.4531C81.8906 27.3281 81.8359 27.1953 81.7891 27.0547C81.7422 26.8984 81.7344 26.7266 81.7656 26.5391C81.5469 26.7266 81.3906 26.9375 81.2969 27.1719C81.2188 27.4062 81.1641 27.6562 81.1328 27.9219C81.1172 28.1875 81.1016 28.4609 81.0859 28.7422C81.0859 29.0078 81.0547 29.2656 80.9922 29.5156C80.9453 29.7031 80.875 29.8828 80.7812 30.0547C80.7031 30.2266 80.6172 30.3984 80.5234 30.5703C80.3828 30.9453 80.2812 31.3359 80.2188 31.7422C80.1562 32.1328 80.0625 32.5234 79.9375 32.9141C79.8594 33.0547 79.7734 33.2031 79.6797 33.3594C79.5859 33.5 79.5156 33.6562 79.4688 33.8281C79.4375 33.9531 79.4297 34.0625 79.4453 34.1562C79.4609 34.25 79.4688 34.3594 79.4688 34.4844C79.4688 34.5469 79.4531 34.6094 79.4219 34.6719C79.3906 34.7188 79.3594 34.7812 79.3281 34.8594C79.2969 34.9375 79.2656 35.0391 79.2344 35.1641C79.2031 35.2734 79.1875 35.4219 79.1875 35.6094C79.1875 35.7344 79.1328 35.8984 79.0234 36.1016C78.9297 36.3047 78.8203 36.5312 78.6953 36.7812C78.5859 37.0156 78.4766 37.2656 78.3672 37.5312C78.2734 37.7969 78.2266 38.0625 78.2266 38.3281C77.9922 38.3906 77.7891 38.5 77.6172 38.6562C77.4609 38.8125 77.3203 38.9844 77.1953 39.1719C77.0859 39.3594 76.9766 39.5547 76.8672 39.7578C76.7734 39.9609 76.6641 40.1406 76.5391 40.2969C76.4922 40.2969 76.4531 40.2891 76.4219 40.2734C76.4062 40.2578 76.3828 40.25 76.3516 40.25C76.1797 40.25 76.0312 40.3125 75.9062 40.4375C75.7969 40.5781 75.6406 40.6484 75.4375 40.6484C75.2188 40.6484 75.0078 40.6172 74.8047 40.5547C74.6172 40.5078 74.4141 40.4844 74.1953 40.4844C73.9922 40.4844 73.7891 40.5078 73.5859 40.5547C73.3984 40.6172 73.1953 40.6484 72.9766 40.6484C72.7266 40.6484 72.5078 40.5703 72.3203 40.4141C72.1484 40.2578 71.9766 40.0859 71.8047 39.8984C71.6328 39.7109 71.4531 39.5312 71.2656 39.3594C71.0938 39.2031 70.8828 39.1172 70.6328 39.1016V38.9609C70.6328 38.7734 70.5547 38.6328 70.3984 38.5391C70.2422 38.4453 70.1094 38.3125 70 38.1406C69.875 37.9531 69.7969 37.7344 69.7656 37.4844C69.7344 37.2188 69.6719 36.9766 69.5781 36.7578C69.4531 36.5547 69.3047 36.375 69.1328 36.2188C68.9609 36.0625 68.8359 35.8906 68.7578 35.7031C68.7266 35.5781 68.7266 35.4609 68.7578 35.3516C68.7891 35.2266 68.8047 35.1172 68.8047 35.0234L68.7578 34.9297L68.4766 34.7422C68.3828 34.5234 68.3281 34.2891 68.3125 34.0391C68.2969 33.7734 68.1875 33.5391 67.9844 33.3359C68.0156 33.2578 68.0391 33.1797 68.0547 33.1016C68.0859 33.0234 68.1016 32.9453 68.1016 32.8672C68.1016 32.4141 68 31.9766 67.7969 31.5547C67.6094 31.1328 67.4688 30.7031 67.375 30.2656C67.3125 29.9375 67.2734 29.6172 67.2578 29.3047C67.2578 28.9766 67.2578 28.6562 67.2578 28.3438C67.2578 28.0156 67.2422 27.6875 67.2109 27.3594C67.1953 27.0312 67.1562 26.7031 67.0938 26.375C67.0312 26.1875 66.9531 26.0078 66.8594 25.8359C66.7656 25.6641 66.6797 25.4922 66.6016 25.3203C66.5234 25.1016 66.4766 24.8906 66.4609 24.6875C66.4453 24.4688 66.3984 24.2656 66.3203 24.0781C66.2422 23.9062 66.1328 23.7578 65.9922 23.6328C65.8672 23.4922 65.7656 23.3203 65.6875 23.1172C65.7188 22.9297 65.7344 22.7344 65.7344 22.5312C65.7344 22.3281 65.7422 22.125 65.7578 21.9219C65.7734 21.7188 65.8125 21.5312 65.875 21.3594C65.9375 21.1719 66.0391 20.9922 66.1797 20.8203C66.0391 20.7109 65.9375 20.5625 65.875 20.375C65.8125 20.1719 65.7734 19.9609 65.7578 19.7422C65.7422 19.5078 65.7344 19.2891 65.7344 19.0859C65.7344 18.8672 65.7188 18.6797 65.6875 18.5234C65.5938 18.1328 65.4609 17.7734 65.2891 17.4453C65.1328 17.1172 65.0547 16.75 65.0547 16.3438C65.0547 16.2656 65.0938 16.1797 65.1719 16.0859C65.25 15.9922 65.3125 15.9219 65.3594 15.875C65.3906 15.7812 65.3984 15.6953 65.3828 15.6172C65.3672 15.5391 65.3594 15.4453 65.3594 15.3359V15.2422C65.375 15.1328 65.4219 14.9141 65.5 14.5859C65.5938 14.2578 65.6953 13.9141 65.8047 13.5547C65.9141 13.1797 66.0156 12.8438 66.1094 12.5469C66.2031 12.25 66.2734 12.0625 66.3203 11.9844C66.5391 11.6875 66.8047 11.4922 67.1172 11.3984C67.4297 11.3047 67.7578 11.2578 68.1016 11.2578C68.3828 11.2578 68.6562 11.2656 68.9219 11.2812C69.1875 11.2969 69.4531 11.3203 69.7188 11.3516C70.0469 11.7578 70.2734 12.0469 70.3984 12.2188C70.5234 12.3906 70.6094 12.5469 70.6562 12.6875C70.7031 12.8281 70.7344 13 70.75 13.2031C70.7812 13.3906 70.8516 13.7031 70.9609 14.1406C71.0078 14.3906 71.0703 14.5859 71.1484 14.7266C71.2266 14.8672 71.2656 15.0547 71.2656 15.2891C71.2656 15.5547 71.2422 15.8125 71.1953 16.0625C71.1484 16.3125 71.125 16.5703 71.125 16.8359C71.125 17.9141 71.2031 18.9766 71.3594 20.0234C71.5156 21.0703 71.5938 22.1328 71.5938 23.2109C71.5938 23.4609 71.6016 23.6641 71.6172 23.8203C71.6484 23.9766 71.6797 24.1172 71.7109 24.2422C71.7578 24.3672 71.8047 24.5 71.8516 24.6406C71.8984 24.7656 71.9531 24.9297 72.0156 25.1328C72.0938 25.3984 72.125 25.6641 72.1094 25.9297C72.0938 26.1953 72.1172 26.4609 72.1797 26.7266C72.2266 26.9453 72.3047 27.1484 72.4141 27.3359C72.5234 27.5078 72.6016 27.7031 72.6484 27.9219C72.7109 28.2031 72.75 28.4844 72.7656 28.7656C72.7969 29.0469 72.8359 29.3203 72.8828 29.5859C72.9297 29.8516 73 30.1094 73.0938 30.3594C73.2031 30.6094 73.3594 30.8359 73.5625 31.0391C73.5 31.1641 73.4688 31.2578 73.4688 31.3203C73.4688 31.5391 73.5391 31.7344 73.6797 31.9062C73.8203 32.0781 73.9375 32.25 74.0312 32.4219C74.0625 32.4219 74.0781 32.4297 74.0781 32.4453C74.0938 32.4609 74.1172 32.4688 74.1484 32.4688C74.2734 32.4688 74.3516 32.4062 74.3828 32.2812C74.4297 32.1406 74.4766 32.0312 74.5234 31.9531C74.7891 31.5625 75.0156 31.0625 75.2031 30.4531C75.3906 29.8281 75.5703 29.2109 75.7422 28.6016C75.9141 27.9922 76.0781 27.4375 76.2344 26.9375C76.4062 26.4375 76.6016 26.1094 76.8203 25.9531C76.8672 25.625 76.8906 25.2734 76.8906 24.8984C76.8906 24.5078 76.8984 24.125 76.9141 23.75C76.9453 23.3594 77.0078 22.9922 77.1016 22.6484C77.1953 22.3047 77.3594 22 77.5938 21.7344C77.6406 20.7812 77.7812 19.9922 78.0156 19.3672C78.25 18.7266 78.4844 18.1406 78.7188 17.6094C78.9688 17.0625 79.1719 16.5 79.3281 15.9219C79.5 15.3281 79.5469 14.5938 79.4688 13.7188C79.625 13.5312 79.7812 13.3359 79.9375 13.1328C80.0938 12.9141 80.2578 12.7266 80.4297 12.5703C80.6172 12.3984 80.8203 12.2578 81.0391 12.1484C81.2734 12.0391 81.5312 11.9844 81.8125 11.9844C82.2188 11.9844 82.5625 12.0547 82.8438 12.1953C83.125 12.3359 83.3594 12.5234 83.5469 12.7578C83.75 12.9922 83.9297 13.2578 84.0859 13.5547C84.2422 13.8516 84.3984 14.1562 84.5547 14.4688C84.7422 14.8594 84.8359 15.3203 84.8359 15.8516C84.8359 16.3828 84.8359 16.8672 84.8359 17.3047C84.8359 17.6484 84.8594 17.9531 84.9062 18.2188C84.9531 18.4688 85.0078 18.7188 85.0703 18.9688C85.1484 19.2031 85.2266 19.4453 85.3047 19.6953C85.3828 19.9453 85.4531 20.2266 85.5156 20.5391C85.5625 20.8672 85.5781 21.2031 85.5625 21.5469C85.5469 21.875 85.5781 22.2109 85.6562 22.5547C85.75 22.9766 85.8906 23.3906 86.0781 23.7969C86.2656 24.1875 86.4297 24.5859 86.5703 24.9922C86.7891 25.6016 86.9844 26.2422 87.1562 26.9141C87.3281 27.5859 87.5 28.2578 87.6719 28.9297C87.8438 29.6016 88.0234 30.2656 88.2109 30.9219C88.4141 31.5625 88.6484 32.1641 88.9141 32.7266C89.1016 32.6797 89.2812 32.4766 89.4531 32.1172C89.6406 31.7422 89.7969 31.3203 89.9219 30.8516C90.0469 30.3828 90.1484 29.9297 90.2266 29.4922C90.3047 29.0547 90.3359 28.7422 90.3203 28.5547C90.6016 28.3047 90.7812 28 90.8594 27.6406C90.9375 27.2812 90.9609 26.9141 90.9297 26.5391C91.1328 26.3203 91.3125 26.0703 91.4688 25.7891C91.625 25.5078 91.7031 25.1953 91.7031 24.8516C91.7031 24.6016 91.6719 24.3594 91.6094 24.125C91.5469 23.8906 91.5156 23.6484 91.5156 23.3984C91.5156 23.0703 91.5625 22.7578 91.6562 22.4609C91.7656 22.1484 91.875 21.8516 91.9844 21.5703C92.1094 21.2891 92.2188 21.0156 92.3125 20.75C92.4219 20.4844 92.4766 20.2344 92.4766 20C92.4766 19.7812 92.4531 19.5625 92.4062 19.3438C92.3594 19.1094 92.3359 18.8828 92.3359 18.6641C92.4297 18.5703 92.4766 18.4688 92.4766 18.3594C92.4766 18.2344 92.4453 18.1094 92.3828 17.9844C92.3203 17.8438 92.2891 17.7031 92.2891 17.5625C92.2891 17.2656 92.3438 16.9844 92.4531 16.7188C92.5625 16.4375 92.6172 16.1562 92.6172 15.875C92.6172 15.6562 92.5703 15.4609 92.4766 15.2891C92.3828 15.1016 92.3359 14.8984 92.3359 14.6797C92.3359 14.5078 92.3594 14.3516 92.4062 14.2109C92.4531 14.0547 92.4766 13.8906 92.4766 13.7188C92.4766 13.5156 92.4531 13.3281 92.4062 13.1562C92.3594 12.9844 92.3359 12.8047 92.3359 12.6172C92.3359 12.3672 92.3594 12.1172 92.4062 11.8672C92.4688 11.6016 92.5312 11.3438 92.5938 11.0938C92.6719 10.8281 92.7344 10.5703 92.7812 10.3203C92.8438 10.0547 92.8828 9.79688 92.8984 9.54688C93.1328 9.4375 93.3516 9.3125 93.5547 9.17188C93.7578 9.01562 93.9609 8.86719 94.1641 8.72656C94.3828 8.58594 94.6016 8.46875 94.8203 8.375C95.0391 8.28125 95.2812 8.23438 95.5469 8.23438C95.6406 8.23438 95.7188 8.23438 95.7812 8.23438C95.8594 8.23438 95.9375 8.25 96.0156 8.28125C96.1875 8.48438 96.3828 8.63281 96.6016 8.72656C96.8359 8.82031 97.0156 8.92969 97.1406 9.05469C97.1406 9.32031 97.1719 9.57812 97.2344 9.82812C97.2969 10.0781 97.3672 10.3281 97.4453 10.5781C97.5234 10.8281 97.5938 11.0781 97.6562 11.3281C97.7188 11.5781 97.75 11.8281 97.75 12.0781ZM124.352 11.5625C124.352 11.8281 124.312 12.1641 124.234 12.5703C124.156 12.9766 124.07 13.3828 123.977 13.7891C123.898 14.1953 123.82 14.5625 123.742 14.8906C123.664 15.2188 123.625 15.4375 123.625 15.5469C123.719 15.6875 123.766 15.8438 123.766 16.0156C123.766 16.0625 123.75 16.1016 123.719 16.1328C123.688 16.1641 123.656 16.2188 123.625 16.2969C123.594 16.3594 123.562 16.4531 123.531 16.5781C123.5 16.6875 123.484 16.8516 123.484 17.0703V17.2578C123.438 17.4141 123.32 17.5938 123.133 17.7969C122.945 18 122.805 18.1719 122.711 18.3125C122.586 18.5156 122.469 18.7031 122.359 18.875C122.266 19.0469 122.18 19.2266 122.102 19.4141C122.023 19.5391 121.992 19.6719 122.008 19.8125C122.023 19.9375 122 20.0625 121.938 20.1875C121.891 20.2812 121.812 20.3594 121.703 20.4219C121.594 20.4844 121.516 20.5703 121.469 20.6797C121.344 20.8672 121.258 21.0703 121.211 21.2891C121.18 21.5078 121.102 21.7031 120.977 21.875C120.805 22.1406 120.562 22.3984 120.25 22.6484C119.953 22.8984 119.688 23.1172 119.453 23.3047C119.312 23.4141 119.156 23.4844 118.984 23.5156C118.812 23.5469 118.664 23.625 118.539 23.75C118.508 23.7812 118.477 23.8438 118.445 23.9375C118.414 24.0156 118.367 24.0938 118.305 24.1719C118.258 24.25 118.188 24.3125 118.094 24.3594C118.016 24.4062 117.906 24.4062 117.766 24.3594C117.531 24.6562 117.258 25 116.945 25.3906C116.633 25.7656 116.336 26.0469 116.055 26.2344C115.977 26.2812 115.891 26.3047 115.797 26.3047C115.719 26.3047 115.641 26.3281 115.562 26.375L115.422 26.6797C115.203 26.7891 115 26.9375 114.812 27.125C114.641 27.2969 114.469 27.4922 114.297 27.7109C114.125 27.9141 113.953 28.125 113.781 28.3438C113.625 28.5469 113.453 28.7266 113.266 28.8828C113.234 29.4609 113.164 30.0469 113.055 30.6406C112.945 31.2344 112.711 31.7812 112.352 32.2812C112.227 32.2812 112.094 32.2891 111.953 32.3047C111.828 32.3203 111.703 32.3281 111.578 32.3281C110.984 32.3281 110.469 32.2188 110.031 32C109.609 31.7656 109.18 31.4453 108.742 31.0391C108.773 30.9766 108.789 30.8828 108.789 30.7578C108.789 30.5391 108.734 30.3438 108.625 30.1719C108.516 29.9844 108.461 29.7812 108.461 29.5625C108.461 29.3125 108.492 29.0781 108.555 28.8594C108.617 28.6406 108.68 28.4219 108.742 28.2031C108.82 27.9688 108.883 27.7344 108.93 27.5C108.977 27.25 108.977 26.9766 108.93 26.6797C109.086 26.5234 109.219 26.3516 109.328 26.1641C109.438 25.9766 109.539 25.7891 109.633 25.6016C109.742 25.4141 109.852 25.2344 109.961 25.0625C110.07 24.875 110.195 24.6953 110.336 24.5234C110.523 24.3047 110.734 24.1172 110.969 23.9609C111.203 23.7891 111.445 23.625 111.695 23.4688C111.945 23.3125 112.188 23.1562 112.422 23C112.672 22.8438 112.906 22.6719 113.125 22.4844C113.266 22.3594 113.367 22.2188 113.43 22.0625C113.492 21.8906 113.594 21.7344 113.734 21.5938C113.984 21.5938 114.188 21.5312 114.344 21.4062C114.516 21.2812 114.711 21.1797 114.93 21.1016C115.055 21.0859 115.148 21.0469 115.211 20.9844C115.289 20.9062 115.344 20.8281 115.375 20.75C115.422 20.6562 115.453 20.5625 115.469 20.4688C115.5 20.375 115.531 20.2812 115.562 20.1875C115.75 20.1562 115.914 20.0938 116.055 20C116.195 19.9062 116.328 19.8047 116.453 19.6953C116.594 19.5859 116.727 19.4766 116.852 19.3672C116.977 19.2578 117.125 19.1641 117.297 19.0859C117.312 18.8516 117.367 18.6562 117.461 18.5C117.555 18.3438 117.648 18.1953 117.742 18.0547C117.852 17.8984 117.938 17.7266 118 17.5391C118.062 17.3359 118.086 17.0859 118.07 16.7891C118.242 16.6328 118.375 16.4609 118.469 16.2734C118.578 16.0703 118.695 15.875 118.82 15.6875V15.3828C118.789 15.1016 118.82 14.8438 118.914 14.6094C119.023 14.375 119.156 14.125 119.312 13.8594C119.281 13.6406 119.273 13.4219 119.289 13.2031C119.305 12.9688 119.312 12.7422 119.312 12.5234C119.312 12.3984 119.297 12.2188 119.266 11.9844C119.25 11.7344 119.227 11.4844 119.195 11.2344C119.164 10.9688 119.125 10.7188 119.078 10.4844C119.047 10.25 119.008 10.0781 118.961 9.96875C118.883 9.73438 118.727 9.4375 118.492 9.07812C118.273 8.71875 118.016 8.35938 117.719 8C117.438 7.64062 117.141 7.3125 116.828 7.01562C116.531 6.71875 116.273 6.51562 116.055 6.40625C115.867 6.3125 115.656 6.24219 115.422 6.19531C115.203 6.14844 114.977 6.11719 114.742 6.10156C114.508 6.07031 114.273 6.04688 114.039 6.03125C113.82 6 113.609 5.96875 113.406 5.9375C113.141 5.90625 112.875 5.85156 112.609 5.77344C112.344 5.69531 112.062 5.65625 111.766 5.65625C111.531 5.65625 111.266 5.71094 110.969 5.82031C110.688 5.92969 110.414 6.03125 110.148 6.125C109.836 6.21875 109.539 6.3125 109.258 6.40625C108.977 6.5 108.719 6.61719 108.484 6.75781C108.25 6.89844 108.039 7.07812 107.852 7.29688C107.664 7.5 107.5 7.76562 107.359 8.09375C107.125 8.32812 106.938 8.53906 106.797 8.72656C106.672 8.89844 106.57 9.07812 106.492 9.26562C106.43 9.45312 106.383 9.66406 106.352 9.89844C106.336 10.1328 106.32 10.4141 106.305 10.7422C106.305 10.8828 106.281 11.0156 106.234 11.1406C106.188 11.2656 106.164 11.3906 106.164 11.5156C106.164 11.7031 106.219 11.9844 106.328 12.3594C106.438 12.7344 106.492 13.1875 106.492 13.7188C106.492 14.25 106.633 14.75 106.914 15.2188C107.211 15.6875 107.531 16.1484 107.875 16.6016C108.234 17.0391 108.555 17.4688 108.836 17.8906C109.133 18.3125 109.281 18.7422 109.281 19.1797C109.281 19.5703 109.188 19.9062 109 20.1875C108.828 20.4531 108.602 20.7109 108.32 20.9609C107.914 20.9141 107.492 20.9062 107.055 20.9375C106.633 20.9531 106.219 20.9141 105.812 20.8203C105.641 20.7734 105.484 20.7031 105.344 20.6094C105.203 20.5 105.055 20.3984 104.898 20.3047C104.758 20.1953 104.609 20.1016 104.453 20.0234C104.297 19.9453 104.125 19.9062 103.938 19.9062C103.719 19.4219 103.43 18.9922 103.07 18.6172C102.727 18.2422 102.359 17.8906 101.969 17.5625V17.2578C102 16.8828 101.961 16.5 101.852 16.1094C101.742 15.7188 101.609 15.3281 101.453 14.9375C101.312 14.5312 101.18 14.125 101.055 13.7188C100.93 13.2969 100.867 12.875 100.867 12.4531C100.867 12.1875 100.906 11.9297 100.984 11.6797C101.078 11.4141 101.141 11.1641 101.172 10.9297C101.203 10.6953 101.227 10.4531 101.242 10.2031C101.258 9.9375 101.289 9.67969 101.336 9.42969C101.383 9.16406 101.453 8.92188 101.547 8.70312C101.641 8.46875 101.781 8.26562 101.969 8.09375C101.938 7.92188 101.898 7.75 101.852 7.57812C101.805 7.39062 101.781 7.21094 101.781 7.03906V6.71094C102 6.58594 102.172 6.42188 102.297 6.21875C102.422 6.01562 102.57 5.82812 102.742 5.65625C102.898 5.46875 103.055 5.3125 103.211 5.1875C103.383 5.04688 103.539 4.90625 103.68 4.76562C103.82 4.625 103.945 4.46875 104.055 4.29688C104.164 4.125 104.242 3.90625 104.289 3.64062C104.398 3.625 104.531 3.57812 104.688 3.5C104.859 3.40625 105.023 3.30469 105.18 3.19531C105.352 3.08594 105.508 2.96875 105.648 2.84375C105.789 2.71875 105.891 2.61719 105.953 2.53906C106.031 2.53906 106.102 2.54687 106.164 2.5625C106.242 2.57813 106.305 2.58594 106.352 2.58594C106.477 2.58594 106.594 2.51562 106.703 2.375C106.828 2.23438 106.953 2.14062 107.078 2.09375C107.312 2 107.562 1.94531 107.828 1.92969C108.109 1.91406 108.367 1.85938 108.602 1.76562C108.867 1.67188 109.094 1.53906 109.281 1.36719C109.484 1.19531 109.719 1.07031 109.984 0.992188C110.438 0.867188 110.953 0.796875 111.531 0.78125C112.109 0.765625 112.641 0.742187 113.125 0.710938C113.203 0.742187 113.273 0.773438 113.336 0.804688C113.398 0.835937 113.469 0.851562 113.547 0.851562C113.734 0.851562 113.914 0.820313 114.086 0.757812C114.258 0.695312 114.43 0.664062 114.602 0.664062C114.805 0.664062 114.992 0.703125 115.164 0.78125C115.336 0.84375 115.508 0.914063 115.68 0.992188C115.852 1.05469 116.023 1.10938 116.195 1.15625C116.383 1.20312 116.586 1.19531 116.805 1.13281C116.945 1.28906 117.094 1.41406 117.25 1.50781C117.422 1.58594 117.594 1.65625 117.766 1.71875C117.953 1.76562 118.133 1.82031 118.305 1.88281C118.492 1.92969 118.664 2 118.82 2.09375C119.133 2.26562 119.406 2.48438 119.641 2.75C119.891 3.01562 120.195 3.21094 120.555 3.33594C120.57 3.52344 120.617 3.67187 120.695 3.78125C120.773 3.875 120.867 3.96875 120.977 4.0625C121.086 4.14062 121.195 4.21875 121.305 4.29688C121.43 4.35938 121.531 4.44531 121.609 4.55469C121.656 4.63281 121.68 4.71094 121.68 4.78906C121.68 4.86719 121.703 4.94531 121.75 5.02344C121.969 5.28906 122.219 5.53906 122.5 5.77344C122.797 6.00781 123.078 6.21875 123.344 6.40625C123.344 6.70312 123.383 6.99219 123.461 7.27344C123.555 7.53906 123.719 7.76562 123.953 7.95312C123.922 8.04688 123.906 8.14844 123.906 8.25781C123.906 8.36719 123.906 8.47656 123.906 8.58594C123.906 9.08594 123.977 9.58594 124.117 10.0859C124.273 10.5703 124.352 11.0625 124.352 11.5625ZM113.266 35.6562V36.7109C113.266 36.9922 113.258 37.2891 113.242 37.6016C113.242 37.8984 113.203 38.1875 113.125 38.4688C112.719 38.7344 112.281 38.9766 111.812 39.1953C111.359 39.4297 110.883 39.5469 110.383 39.5469C110.102 39.5469 109.805 39.4922 109.492 39.3828C109.195 39.2891 108.922 39.1406 108.672 38.9375C108.422 38.75 108.219 38.5234 108.062 38.2578C107.906 37.9922 107.828 37.6953 107.828 37.3672C107.828 36.9609 107.93 36.5781 108.133 36.2188C108.352 35.8438 108.508 35.4609 108.602 35.0703C108.961 34.8516 109.336 34.6875 109.727 34.5781C110.133 34.4531 110.539 34.3906 110.945 34.3906C111.398 34.3906 111.844 34.4922 112.281 34.6953C112.719 34.8984 113.047 35.2188 113.266 35.6562Z" fill="white"/>
</svg>
